<svg xmlns="http://www.w3.org/2000/svg" viewBox="0 0 64 64" fill="none">
  <!-- Lotus / leaf favicon for Pulse It Out -->
  <circle cx="32" cy="32" r="32" fill="#FAF7F2"/>
  <!-- Central petal -->
  <path d="M32 10 C32 10, 20 22, 20 34 C20 42, 25 48, 32 50 C39 48, 44 42, 44 34 C44 22, 32 10, 32 10Z" fill="#C8A882" opacity="0.9"/>
  <!-- Left petal -->
  <path d="M32 26 C32 26, 14 20, 12 32 C10 42, 18 50, 28 48 C26 42, 26 36, 32 26Z" fill="#9CAF88" opacity="0.8"/>
  <!-- Right petal -->
  <path d="M32 26 C32 26, 50 20, 52 32 C54 42, 46 50, 36 48 C38 42, 38 36, 32 26Z" fill="#9CAF88" opacity="0.8"/>
  <!-- Center dot -->
  <circle cx="32" cy="36" r="4" fill="#8B7355"/>
</svg>